PathFileType	4	(X/Y/Z)	c:/Users/goper/Files/vsCode/490R/osim_files/C06/C06_ROM.trc
DataRate	CameraRate	NumFrames	NumMarkers	Units                	OrigDataRate	OrigDataStartFrame	OrigNumFrames
250.00	250.00	6	36	mm	250.0	2566	3421
                Frame#	Time	LPSIS			LASIS			LTH1			LTH2			LTH3			LTH4			LLFE			LMFE			LSH1			LSH2			LSH3			LSH4			LLMAL			LMMAL			LCAL			LMTP5			LTOE			LMTP1			RPSIS			RASIS			RTH1			RTH2			RTH3			RTH4			RLFE			RMFE			RSH1			RSH2			RSH3			RSH4			RLMAL			RMMAL			RCAL			RMTP1			RTOE			RMTP5		
		X1	Y1	Z1	X2	Y2	Z2	X3	Y3	Z3	X4	Y4	Z4	X5	Y5	Z5	X6	Y6	Z6	X7	Y7	Z7	X8	Y8	Z8	X9	Y9	Z9	X10	Y10	Z10	X11	Y11	Z11	X12	Y12	Z12	X13	Y13	Z13	X14	Y14	Z14	X15	Y15	Z15	X16	Y16	Z16	X17	Y17	Z17	X18	Y18	Z18	X19	Y19	Z19	X20	Y20	Z20	X21	Y21	Z21	X22	Y22	Z22	X23	Y23	Z23	X24	Y24	Z24	X25	Y25	Z25	X26	Y26	Z26	X27	Y27	Z27	X28	Y28	Z28	X29	Y29	Z29	X30	Y30	Z30	X31	Y31	Z31	X32	Y32	Z32	X33	Y33	Z33	X34	Y34	Z34	X35	Y35	Z35	X36	Y36	Z36

2566	10.26000	-475.50226	977.99146	456.00537	-325.72958	899.90076	350.74979	-391.86682	737.89569	255.28369	-357.21103	687.29419	242.79008	-324.35599	773.59100	263.21896	-300.01160	717.18756	251.62283	-211.13103	471.71201	230.43068	-209.07332	438.32959	343.71689	-284.32825	380.47922	199.93665	-286.68863	336.76080	196.77283	-220.16777	370.67456	203.52309	-232.89055	328.52798	198.94954	-313.86646	92.50900	205.24988	-303.20782	100.99474	285.85397	-376.66580	63.91752	251.20001	-201.28125	39.36840	179.37823	-151.15109	71.36472	244.92784	-176.09831	47.93454	290.13519	-475.20782	971.80884	529.14252	-308.02896	888.24457	580.73224	-369.04617	723.81732	684.29938	-335.11127	670.57812	686.68683	-302.61349	757.80774	671.68518	-278.52112	699.19281	677.23096	-190.45242	442.40216	679.86969	-168.22549	451.38745	569.42926	-253.78375	384.18179	699.23462	-263.17505	337.35303	705.18225	-197.69800	363.67856	693.67987	-215.11926	319.89270	697.44006	-314.19717	89.12777	682.15558	-292.41849	105.31150	602.53125	-378.48117	59.72742	636.71796	-176.35695	58.66909	608.29108	-155.30711	68.02718	649.50305	-199.03812	35.76873	711.84399
2567	10.26400	-476.39227	976.31537	456.07074	-326.89758	897.77039	350.80127	-392.60443	736.32556	255.18748	-357.63898	685.91156	242.62589	-325.14124	772.19061	262.78589	-300.78842	716.05774	251.48428	-210.25716	471.35245	229.89047	-208.15477	438.05148	343.24594	-283.52319	380.27719	199.65123	-285.99945	336.33517	196.44269	-219.40327	370.35486	203.12457	-232.16031	328.22647	198.63237	-313.77744	92.45406	205.17085	-303.02414	101.04287	285.78448	-376.62741	63.89767	251.18800	-201.24947	39.23217	179.28697	-151.47363	70.92165	244.86974	-176.00250	47.88720	290.02390	-476.07617	970.28174	529.24054	-309.07040	886.07104	580.66125	-369.88754	722.17377	684.39514	-335.51688	669.18494	686.76031	-303.56519	756.61102	671.84772	-278.96655	698.18170	677.33014	-189.53387	441.90280	680.15356	-167.12073	450.96259	569.75140	-252.91405	383.82541	699.47308	-262.45636	337.00641	705.38116	-196.88704	363.25351	693.62201	-214.41252	319.43811	697.55597	-314.11319	89.09754	682.12885	-292.29276	105.22626	602.56207	-378.42783	59.72192	636.66992	-176.30180	58.55759	608.30133	-155.27426	67.89567	649.50763	-198.99220	35.69105	711.86444
2568	10.26800	-477.13937	974.83978	456.12933	-327.99805	895.67926	350.83615	-393.24252	734.75171	254.96729	-358.08917	684.55707	242.48894	-326.02472	771.07214	262.70361	-301.41263	714.95026	251.28349	-209.27713	470.99039	229.37003	-207.26289	437.78079	342.79794	-282.72467	380.07986	199.29385	-285.25122	336.18631	196.10077	-218.61172	370.03073	202.75975	-231.48305	327.88895	198.28995	-313.73035	92.40065	205.11215	-302.79382	101.13860	285.68420	-376.58875	63.89934	251.14400	-201.23831	39.12602	179.19185	-151.04942	71.15166	244.67844	-175.94092	47.87788	289.91962	-476.90524	968.57819	529.19690	-310.05197	883.87140	580.58405	-370.55743	720.54767	684.48547	-335.99152	667.78436	686.81659	-304.47260	755.53790	672.06512	-279.58545	697.03851	677.46399	-188.59180	441.50552	680.44360	-166.12074	450.50635	569.97900	-251.99135	383.52573	699.69092	-261.56277	336.66382	705.58606	-195.98360	362.83978	693.81995	-213.47527	319.05170	697.75110	-314.04468	89.10885	682.09485	-292.18774	105.15833	602.58740	-378.43460	59.77358	636.62183	-176.25728	58.49734	608.30908	-155.21988	67.81219	649.50220	-198.95604	35.63451	711.86963
2569	10.27200	-478.02734	973.15381	455.99158	-329.04608	893.56799	350.84512	-393.40240	733.31549	254.20631	-358.16412	683.36243	242.15480	-326.93057	769.88495	262.59491	-302.00375	713.80896	251.19054	-208.31541	470.65918	228.94829	-206.25671	437.51025	342.35495	-281.82886	379.90985	198.95708	-284.66916	335.97296	196.05820	-217.75584	369.66107	202.36789	-230.87167	327.56128	197.92786	-313.68973	92.35828	205.03548	-302.55768	101.23379	285.58896	-376.56299	63.89403	251.09879	-201.24818	39.00111	179.10324	-151.40544	70.85547	244.69246	-175.85490	47.88499	289.80887	-477.65018	966.93622	529.21027	-311.04422	881.65302	580.51129	-371.36307	718.86499	684.52100	-336.38620	666.32672	686.86774	-305.47720	754.23468	672.25623	-280.09323	695.97266	677.58038	-187.53915	441.03149	680.72894	-164.92300	450.11139	570.28162	-251.05450	383.20392	699.91284	-260.78119	336.40616	705.78339	-195.07870	362.33984	694.17334	-212.67084	318.65948	697.90265	-313.91800	89.15350	682.09668	-291.87985	105.26490	602.62897	-378.39969	59.85358	636.55090	-176.18773	58.44999	608.33228	-155.15987	67.75831	649.50641	-198.89775	35.56566	711.88446
2570	10.27600	-478.67804	971.44275	456.06992	-330.16998	891.44019	350.86545	-394.56476	731.58167	254.62482	-358.76794	681.80707	242.07654	-327.70145	768.77637	262.49588	-302.64389	712.60870	251.04855	-207.34908	470.31235	228.50438	-205.46939	437.16510	341.96729	-281.05371	379.72653	198.62877	-283.92383	335.85898	195.69502	-217.05540	369.33347	202.09981	-230.09058	327.27377	197.65598	-313.64529	92.30846	204.99327	-302.41595	101.29887	285.50031	-376.52667	63.96680	251.03070	-201.23463	38.86928	178.99591	-151.36932	70.79037	244.53535	-175.81348	47.86007	289.70761	-478.55801	965.25037	529.26080	-312.06216	879.40155	580.43176	-372.14651	717.13190	684.52692	-336.82529	664.88135	686.87683	-306.37952	752.85974	672.39655	-280.68787	694.82098	677.69501	-186.76549	440.55090	681.05420	-163.96181	449.70038	570.57019	-250.26967	382.87662	700.14062	-260.04626	336.13913	705.94501	-194.21489	361.90524	694.44989	-211.91356	318.27112	698.04980	-313.88788	89.15591	682.11383	-291.77518	105.23170	602.65582	-378.36618	59.87008	636.51367	-176.15646	58.39708	608.36981	-155.12956	67.70120	649.54236	-198.88908	35.48564	711.92737
2571	10.28000	-479.67230	969.89661	456.03012	-331.30591	889.33020	350.89600	-395.25763	729.96204	254.46550	-359.10236	680.40924	241.93094	-328.44864	767.69165	262.58371	-303.16718	711.45239	250.87648	-206.38272	469.93112	228.01799	-204.57053	436.83362	341.51819	-280.27472	379.59067	198.27118	-283.29639	335.52515	195.31317	-216.19086	369.04712	201.72000	-229.38588	327.01834	197.36417	-313.56415	92.27931	204.92628	-302.71457	101.12862	285.57791	-376.46735	64.01759	251.01512	-201.19214	38.73332	178.88928	-151.29448	70.65693	244.39520	-175.77704	47.77682	289.62299	-479.24603	963.52600	529.27997	-313.14172	877.07166	580.34375	-372.92502	715.41925	684.54657	-337.36200	663.33032	686.85522	-307.33835	751.59918	672.65564	-281.36472	693.62122	677.84766	-185.83723	440.10107	681.45142	-162.77769	449.35748	570.82800	-249.35289	382.60446	700.33600	-259.31000	335.87509	706.06689	-193.48924	361.44623	694.62482	-211.21840	317.89902	698.20190	-313.85165	89.12279	682.12445	-291.62418	105.21664	602.69385	-378.38193	59.91503	636.50787	-176.12880	58.34344	608.43060	-155.10768	67.63012	649.58673	-198.85985	35.38992	711.97327
